<svg width="32" height="32" viewBox="0 0 32 32" fill="none" xmlns="http://www.w3.org/2000/svg">
<path d="M27.6133 4.87252C27.6133 4.87252 30.2033 3.86252 29.9867 6.31518C29.9153 7.32518 29.268 10.8605 28.764 14.6838L27.0373 26.0105C27.0373 26.0105 26.8933 27.6698 25.598 27.9585C24.3033 28.2465 22.3607 26.9485 22.0007 26.6599C21.7127 26.4432 16.6047 23.1965 14.806 21.6099C14.302 21.1765 13.726 20.3112 14.878 19.3012L22.432 12.0865C23.2953 11.2212 24.1587 9.20118 20.5613 11.6539L10.488 18.5072C10.488 18.5072 9.33668 19.2292 7.17868 18.5799L2.50134 17.1365C2.50134 17.1365 0.774675 16.0545 3.72468 14.9725C10.92 11.5818 19.77 8.11918 27.612 4.87252H27.6133Z" fill="white"/>
</svg>
